<?xml version="1.0" encoding="UTF-8"?>
<svg width="18px" height="18px" viewBox="0 0 18 18" version="1.1" xmlns="http://www.w3.org/2000/svg" xmlns:xlink="http://www.w3.org/1999/xlink">
    <!-- Generator: Sketch 50.2 (55047) - http://www.bohemiancoding.com/sketch -->
    <title>解析失败</title>
    <desc>Created with Sketch.</desc>
    <defs></defs>
    <g id="园林审计" stroke="none" stroke-width="1" fill="none" fill-rule="evenodd">
        <g id="2.0.0.5新增审计-2-" transform="translate(-491.000000, -549.000000)">
            <g id="Group-6" transform="translate(298.000000, 331.000000)">
                <g id="Group-10-Copy-2" transform="translate(0.000000, 217.000000)">
                    <g id="Group-19" transform="translate(193.000000, 1.000000)">
                        <g>
                            <g id="Group-26" transform="translate(5.000000, 5.000000)" fill="#EC3F4E" fill-rule="nonzero">
                                <path d="M5.06066017,4 L8.53033009,7.46966991 C8.8232233,7.76256313 8.8232233,8.23743687 8.53033009,8.53033009 C8.23743687,8.8232233 7.76256313,8.8232233 7.46966991,8.53033009 L4,5.06066017 L0.530330086,8.53033009 C0.237436867,8.8232233 -0.237436867,8.8232233 -0.530330086,8.53033009 C-0.823223305,8.23743687 -0.823223305,7.76256313 -0.530330086,7.46966991 L2.93933983,4 L-0.530330086,0.530330086 C-0.823223305,0.237436867 -0.823223305,-0.237436867 -0.530330086,-0.530330086 C-0.237436867,-0.823223305 0.237436867,-0.823223305 0.530330086,-0.530330086 L4,2.93933983 L7.46966991,-0.530330086 C7.76256313,-0.823223305 8.23743687,-0.823223305 8.53033009,-0.530330086 C8.8232233,-0.237436867 8.8232233,0.237436867 8.53033009,0.530330086 L5.06066017,4 Z" id="Combined-Shape"></path>
                            </g>
                            <rect id="Rectangle" x="0" y="0" width="18" height="18"></rect>
                        </g>
                    </g>
                    <g id="Group-19" transform="translate(193.000000, 1.000000)">
                        <g id="Group-26" transform="translate(5.000000, 5.000000)" fill="#EC3F4E" fill-rule="nonzero">
                            <path d="M5.06066017,4 L8.53033009,7.46966991 C8.8232233,7.76256313 8.8232233,8.23743687 8.53033009,8.53033009 C8.23743687,8.8232233 7.76256313,8.8232233 7.46966991,8.53033009 L4,5.06066017 L0.530330086,8.53033009 C0.237436867,8.8232233 -0.237436867,8.8232233 -0.530330086,8.53033009 C-0.823223305,8.23743687 -0.823223305,7.76256313 -0.530330086,7.46966991 L2.93933983,4 L-0.530330086,0.530330086 C-0.823223305,0.237436867 -0.823223305,-0.237436867 -0.530330086,-0.530330086 C-0.237436867,-0.823223305 0.237436867,-0.823223305 0.530330086,-0.530330086 L4,2.93933983 L7.46966991,-0.530330086 C7.76256313,-0.823223305 8.23743687,-0.823223305 8.53033009,-0.530330086 C8.8232233,-0.237436867 8.8232233,0.237436867 8.53033009,0.530330086 L5.06066017,4 Z" id="Combined-Shape"></path>
                        </g>
                        <rect id="Rectangle" x="0" y="0" width="18" height="18"></rect>
                    </g>
                </g>
            </g>
        </g>
    </g>
</svg>